<?xml version="1.0" standalone="no"?>
<!DOCTYPE svg PUBLIC "-//W3C//DTD SVG 20010904//EN"
 "http://www.w3.org/TR/2001/REC-SVG-20010904/DTD/svg10.dtd">
<svg version="1.0" xmlns="http://www.w3.org/2000/svg"
 width="1024.000000pt" height="1024.000000pt" viewBox="0 0 1024.000000 1024.000000"
 preserveAspectRatio="xMidYMid meet">
<metadata>
Created by potrace 1.16, written by Peter Selinger 2001-2019
</metadata>
<g transform="translate(0.000000,1024.000000) scale(0.100000,-0.100000)"
fill="#000000" stroke="none">
<path d="M6701 9599 c-47 -9 -131 -70 -139 -101 -2 -10 -8 -18 -12 -18 -17 0
-32 -75 -28 -140 4 -81 35 -135 107 -185 l43 -30 416 -5 417 -5 -773 -776
-773 -777 -645 648 c-711 714 -695 700 -813 700 -42 0 -77 -7 -108 -21 -35
-16 -243 -219 -937 -915 -523 -526 -900 -912 -914 -936 -17 -33 -22 -57 -22
-118 0 -66 4 -82 28 -121 37 -58 96 -104 152 -119 54 -15 147 -7 193 16 17 9
388 374 824 811 l791 795 653 -651 c359 -358 659 -651 666 -651 7 0 13 -4 13
-8 0 -15 67 -32 130 -32 45 0 76 6 109 22 34 17 263 239 891 864 465 463 860
855 878 872 l32 31 0 -420 0 -420 24 -47 c48 -93 127 -142 231 -142 107 0 190
53 234 150 20 44 21 62 21 797 0 680 -2 757 -17 795 -17 45 -80 112 -123 132
-31 14 -1481 19 -1549 5z"/>
<path d="M8085 7071 c-79 -20 -145 -72 -184 -146 l-21 -40 0 -2377 0 -2378
-21 -61 c-12 -34 -29 -71 -38 -82 -77 -95 -114 -124 -198 -155 -45 -16 -187
-17 -2338 -17 -2446 0 -2346 -2 -2417 47 -14 10 -30 18 -36 18 -19 0 -101 100
-129 157 l-28 58 -3 1252 -2 1253 2292 2 2293 3 50 32 c180 115 161 362 -35
456 l-45 22 -2279 3 -2278 2 4 238 3 237 29 50 c40 69 62 91 126 128 l55 32
2273 3 2272 2 0 255 0 255 -2337 -3 -2338 -2 -64 -23 c-248 -87 -416 -255
-503 -502 l-23 -65 -2 -1850 -3 -1849 21 -86 c68 -278 251 -480 534 -590 128
-50 69 -49 2570 -49 2504 -1 2415 -2 2559 49 266 95 448 297 523 578 17 64 18
194 18 2518 0 2120 -2 2455 -14 2480 -23 46 -82 104 -126 124 -49 21 -119 31
-160 21z"/>
<path d="M3392 3976 c-56 -24 -110 -74 -138 -128 -24 -45 -24 -170 0 -216 26
-51 79 -101 132 -128 l49 -23 647 -1 647 0 55 25 c86 39 155 143 156 233 0 94
-68 193 -162 237 l-53 25 -640 0 -640 -1 -53 -23z"/>
<path d="M5790 3974 c-106 -49 -153 -121 -153 -234 0 -110 50 -191 148 -236
l50 -24 667 0 666 0 50 23 c91 42 162 146 162 237 0 92 -69 192 -162 235 l-53
25 -660 0 -660 0 -55 -26z"/>
<path d="M3444 2855 c-75 -16 -138 -59 -178 -122 -27 -41 -30 -54 -30 -127 0
-69 4 -88 23 -120 44 -71 104 -117 173 -134 68 -17 1245 -16 1308 1 92 25 159
90 187 182 28 91 0 190 -73 254 -89 78 -64 75 -744 78 -479 1 -618 -1 -666
-12z"/>
<path d="M5842 2855 c-104 -23 -188 -107 -203 -204 -12 -76 5 -145 48 -200 44
-56 80 -80 143 -98 64 -18 1284 -18 1350 0 141 39 225 174 190 309 -24 94 -72
147 -170 187 -51 22 -1265 27 -1358 6z"/>
</g>
</svg>
